HIERARCHY
ROOT joint_Root
{
	OFFSET 0.0 0.0 0.0
	CHANNELS 6 Xposition Yposition Zposition Zrotation Xrotation Yrotation 
	JOINT Hips
	{
		OFFSET -17.1583 93.1646 452.98
		CHANNELS 6 Xposition Yposition Zposition Zrotation Xrotation Yrotation 
		JOINT Spine
		{
			OFFSET 15.7357 0.0 0.0
			CHANNELS 6 Xposition Yposition Zposition Zrotation Xrotation Yrotation 
			JOINT Chest
			{
				OFFSET 8.98455 -0.406207 0.0
				CHANNELS 6 Xposition Yposition Zposition Zrotation Xrotation Yrotation 
				JOINT Neck
				{
					OFFSET 16.3773 0.0 0.0
					CHANNELS 6 Xposition Yposition Zposition Zrotation Xrotation Yrotation 
					JOINT Head
					{
						OFFSET 6.45672 0.0 0.0
						CHANNELS 6 Xposition Yposition Zposition Zrotation Xrotation Yrotation 
						End Site
						{
							OFFSET 0.0 0.0 0.0
						}
					}
				}
				JOINT Shoulder_L
				{
					OFFSET 12.9942 -0.242716 4.98039
					CHANNELS 6 Xposition Yposition Zposition Zrotation Xrotation Yrotation 
					JOINT UpperArm_L
					{
						OFFSET 5.34809 0.0 0.0
						CHANNELS 6 Xposition Yposition Zposition Zrotation Xrotation Yrotation 
						JOINT LowerArm_L
						{
							OFFSET 24.3286 1.87007e-05 0.0
							CHANNELS 6 Xposition Yposition Zposition Zrotation Xrotation Yrotation 
							JOINT Hand_L
							{
								OFFSET 22.2916 0.0 0.0
								CHANNELS 6 Xposition Yposition Zposition Zrotation Xrotation Yrotation 
								End Site
								{
									OFFSET 0.0 0.0 0.0
								}
							}
						}
					}
				}
				JOINT Shoulder_R
				{
					OFFSET 12.9945 -0.242716 -4.98039
					CHANNELS 6 Xposition Yposition Zposition Zrotation Xrotation Yrotation 
					JOINT UpperArm_R
					{
						OFFSET -5.34813 0.0 0.0
						CHANNELS 6 Xposition Yposition Zposition Zrotation Xrotation Yrotation 
						JOINT LowerArm_R
						{
							OFFSET -24.3289 0.000322201 0.0
							CHANNELS 6 Xposition Yposition Zposition Zrotation Xrotation Yrotation 
							JOINT Hand_R
							{
								OFFSET -22.2915 -0.000108084 0.0
								CHANNELS 6 Xposition Yposition Zposition Zrotation Xrotation Yrotation 
								End Site
								{
									OFFSET 0.0 0.0 0.0
								}
							}
						}
					}
				}
			}
		}
		JOINT UpperLeg_L
		{
			OFFSET -2.19248 -6.46944 0.0
			CHANNELS 6 Xposition Yposition Zposition Zrotation Xrotation Yrotation 
			JOINT LowerLeg_L
			{
				OFFSET 39.0811 0.0 -1.23785e-05
				CHANNELS 6 Xposition Yposition Zposition Zrotation Xrotation Yrotation 
				JOINT Foot_L
				{
					OFFSET 40.9854 0.0 -1.26872e-05
					CHANNELS 6 Xposition Yposition Zposition Zrotation Xrotation Yrotation 
					JOINT Toes_L
					{
						OFFSET 11.7543 0.0 0.0
						CHANNELS 6 Xposition Yposition Zposition Zrotation Xrotation Yrotation 
						End Site
						{
							OFFSET 0.0 0.0 0.0
						}
					}
				}
			}
		}
		JOINT UpperLeg_R
		{
			OFFSET -2.19251 6.46944 0.0
			CHANNELS 6 Xposition Yposition Zposition Zrotation Xrotation Yrotation 
			JOINT LowerLeg_R
			{
				OFFSET -39.0811 -0.00228153 -0.0401928
				CHANNELS 6 Xposition Yposition Zposition Zrotation Xrotation Yrotation 
				JOINT Foot_R
				{
					OFFSET -40.9854 0.0 0.0
					CHANNELS 6 Xposition Yposition Zposition Zrotation Xrotation Yrotation 
					JOINT Toes_R
					{
						OFFSET -11.7543 0.0 0.0
						CHANNELS 6 Xposition Yposition Zposition Zrotation Xrotation Yrotation 
						End Site
						{
							OFFSET 0.0 0.0 0.0
						}
					}
				}
			}
		}
	}
}
MOTION
Frames:	4
Frame Time:	0.0333333
0.000000 0.000000 0.000000 0.000000 0.000000 -0.000000 -3.298070 94.087200 21.880700 -88.461600 2.843000 169.341000 15.735700 0.000005 -0.000001 28.550900 83.781100 -26.376600 8.984550 -0.406207 -0.000000 -1.614470 -11.100700 4.201200 16.377300 -0.000001 -0.000001 -1.756610 6.404650 -2.941530 6.456720 -0.000001 -0.000000 0.413294 12.427300 -4.452400 12.994200 -0.242716 4.980390 -91.712300 5.888050 -73.753400 5.348090 -0.000007 -0.000001 -74.549700 -3.114710 1.661260 24.328600 0.000019 0.000005 57.127900 -1.381920 -90.892800 22.291600 -0.000001 0.000005 45.694000 4.114980 22.569800 12.994500 -0.242716 -4.980390 90.322100 -0.947225 -71.216200 -5.348130 -0.000001 -0.000004 -54.186500 -17.937400 29.517600 -24.328900 0.000322 -0.000009 6.505150 11.830200 -29.085800 -22.291500 -0.000108 -0.000004 56.559400 5.360180 -1.686580 -2.192480 -6.469440 -0.000000 177.216000 -1.342080 6.332530 39.081100 -0.000007 -0.000012 -0.003984 0.005996 33.608600 40.985400 -0.000006 -0.000013 -9.410690 7.432980 -32.921000 11.754300 -0.000000 0.000003 0.002226 0.056627 -14.279900 -2.192510 6.469440 -0.000001 -179.618000 -12.457400 147.640000 -39.081100 -0.002282 -0.040193 0.005531 -0.009813 12.615500 -40.985400 0.000008 0.000006 -7.409230 -9.297640 -77.018200 -11.754300 -0.000006 -0.000006 -0.000060 0.168668 -9.732190
0.000000 0.000000 0.000000 0.000000 0.000000 -0.000000 -3.168380 92.643700 11.201400 -88.470000 3.596720 171.294000 15.735700 0.000005 -0.000001 34.584900 83.783700 -32.524200 8.984550 -0.406207 -0.000000 -0.513360 -10.382300 4.081300 16.377300 -0.000001 -0.000001 -1.734420 6.444040 -3.052820 6.456720 -0.000001 -0.000000 0.529662 12.251300 -4.587330 12.994200 -0.242716 4.980390 -91.775600 6.036790 -73.576100 5.348090 -0.000007 -0.000001 -75.869900 -3.033420 2.479800 24.328600 0.000019 0.000005 55.067300 4.350670 -86.966600 22.291600 -0.000001 0.000005 45.825500 4.096830 22.834600 12.994500 -0.242716 -4.980390 90.211800 -0.627981 -71.356800 -5.348130 -0.000001 -0.000004 -55.000000 -18.790300 27.797900 -24.328900 0.000322 -0.000009 4.409310 8.756650 -26.867800 -22.291500 -0.000108 -0.000004 57.568900 5.353930 -1.495780 -2.192480 -6.469440 -0.000000 178.018000 -3.941580 4.806140 39.081100 -0.000007 -0.000012 0.071852 -0.067601 46.744500 40.985400 -0.000006 -0.000013 -12.452200 7.174840 -32.774100 11.754300 -0.000000 0.000003 0.001940 0.044470 -14.772900 -2.192510 6.469440 -0.000001 -177.469000 -10.795200 150.103000 -39.081100 -0.002282 -0.040193 0.005440 -0.009117 13.011600 -40.985400 0.000008 0.000006 -8.379200 -9.001430 -79.509200 -11.754300 -0.000006 -0.000006 0.000073 0.166428 -9.823140
0.000000 0.000000 0.000000 0.000000 0.000000 -0.000000 -2.803180 90.319900 1.254230 -87.043500 4.130380 171.635000 15.735700 0.000005 -0.000001 41.212200 84.276000 -38.688300 8.984550 -0.406207 -0.000000 -0.017251 -8.781380 5.051220 16.377300 -0.000001 -0.000001 -1.740760 6.173350 -3.281510 6.456720 -0.000001 -0.000000 -0.168072 11.375800 -4.706900 12.994200 -0.242716 4.980390 -92.176600 7.238600 -73.214700 5.348090 -0.000007 -0.000001 -75.464000 -3.884140 3.577860 24.328600 0.000019 0.000005 55.450200 11.953000 -81.884700 22.291600 -0.000001 0.000005 45.299500 4.166820 21.806300 12.994500 -0.242716 -4.980390 89.862000 0.416633 -71.673300 -5.348130 -0.000001 -0.000004 -56.798100 -18.572200 25.266300 -24.328900 0.000322 -0.000009 4.014530 8.105530 -26.468200 -22.291500 -0.000108 -0.000004 58.214700 5.377150 -2.208920 -2.192480 -6.469440 -0.000000 -178.972000 -7.178570 -1.459970 39.081100 -0.000007 -0.000012 0.245002 -0.124635 63.036300 40.985400 -0.000006 -0.000013 -11.224700 5.226930 -34.873100 11.754300 -0.000000 0.000003 0.001711 0.036984 -15.076500 -2.192510 6.469440 -0.000001 -173.036000 -5.899740 147.171000 -39.081100 -0.002282 -0.040193 0.007143 -0.008483 24.297500 -40.985400 0.000008 0.000006 -8.195650 -5.485160 -75.132000 -11.754300 -0.000006 -0.000006 0.002485 0.086854 -13.050900
0.000000 0.000000 0.000000 0.000000 0.000000 -0.000000 -2.353530 87.277400 -8.430020 -86.006700 2.858300 172.425000 15.735700 0.000005 -0.000001 49.994900 84.435500 -47.101100 8.984550 -0.406207 -0.000000 0.960912 -7.323440 5.850750 16.377300 -0.000001 -0.000001 -2.356130 5.388810 -3.343840 6.456720 -0.000001 -0.000000 -1.304840 9.709920 -4.728650 12.994200 -0.242716 4.980390 -92.687000 8.806910 -72.958100 5.348090 -0.000007 -0.000001 -73.695800 -7.362750 5.345500 24.328600 0.000019 0.000005 58.371200 19.149800 -78.578300 22.291600 -0.000001 0.000005 46.251300 4.131790 22.322800 12.994500 -0.242716 -4.980390 89.316800 2.088570 -71.882000 -5.348130 -0.000001 -0.000004 -59.526400 -16.951100 21.346500 -24.328900 0.000322 -0.000009 3.370510 6.644750 -26.982400 -22.291500 -0.000108 -0.000004 58.946900 5.383560 -2.410240 -2.192480 -6.469440 -0.000000 -175.857000 -7.952930 -9.831880 39.081100 -0.000007 -0.000012 0.483144 -0.085881 79.920000 40.985400 -0.000006 -0.000013 -11.352700 -1.452040 -38.165300 11.754300 -0.000000 0.000003 0.001845 0.041221 -14.904700 -2.192510 6.469440 -0.000001 -168.856000 -0.984391 142.914000 -39.081100 -0.002282 -0.040193 0.305434 -0.329755 42.500100 -40.985400 0.000008 0.000006 3.459160 -5.339610 -72.064500 -11.754300 -0.000006 -0.000006 -0.001278 0.186946 -8.989570
